<?xml version="1.0" encoding="UTF-8"?>
<!DOCTYPE svg PUBLIC "-//W3C//DTD SVG 1.1//EN" "http://www.w3.org/Graphics/SVG/1.1/DTD/svg11.dtd">
<svg xmlns="http://www.w3.org/2000/svg" version="1.1" width="159px" height="120px" style="shape-rendering:geometricPrecision; text-rendering:geometricPrecision; image-rendering:optimizeQuality; fill-rule:evenodd; clip-rule:evenodd" xmlns:xlink="http://www.w3.org/1999/xlink">
<g><path style="opacity:0.832" fill="#00b9d6" d="M 37.5,-0.5 C 39.8333,-0.5 42.1667,-0.5 44.5,-0.5C 47.6805,2.7912 49.5139,6.7912 50,11.5C 57.8333,20.6667 65.6667,29.8333 73.5,39C 74.5,39.6667 75.5,39.6667 76.5,39C 78.4002,36.6647 80.4002,34.498 82.5,32.5C 83.4151,34.7541 84.7484,36.7541 86.5,38.5C 83.4,41.9702 81.7333,45.9702 81.5,50.5C 66.1108,34.1142 50.7775,17.7809 35.5,1.5C 36.1667,0.833333 36.8333,0.166667 37.5,-0.5 Z"/></g>
<g><path style="opacity:0.88" fill="#00a5dc" d="M 105.5,-0.5 C 106.5,-0.5 107.5,-0.5 108.5,-0.5C 110.833,2.5 113.5,5.16667 116.5,7.5C 117.072,9.25542 117.906,10.9221 119,12.5C 126,20.8333 133,29.1667 140,37.5C 141.826,39.0738 143.993,39.9071 146.5,40C 151.414,44.2128 151.747,48.7128 147.5,53.5C 146.534,55.396 146.201,57.396 146.5,59.5C 143.527,55.8604 140.194,52.5271 136.5,49.5C 135.686,47.369 135.186,45.0356 135,42.5C 127.667,33.8333 120.333,25.1667 113,16.5C 112.503,18.8098 112.337,21.1432 112.5,23.5C 110.527,20.8605 108.194,18.5272 105.5,16.5C 104.167,14.5 102.5,12.8333 100.5,11.5C 100.502,6.71427 102.168,2.71427 105.5,-0.5 Z"/></g>
<g><path style="opacity:0.72" fill="#00a1dd" d="M 108.5,-0.5 C 109.833,-0.5 111.167,-0.5 112.5,-0.5C 115.389,1.2774 116.722,3.94407 116.5,7.5C 113.5,5.16667 110.833,2.5 108.5,-0.5 Z"/></g>
<g><path style="opacity:0.889" fill="#00bdd5" d="M 35.5,1.5 C 50.7775,17.7809 66.1108,34.1142 81.5,50.5C 80.8783,51.6266 80.045,52.6266 79,53.5C 78.5012,57.4862 78.3345,61.4862 78.5,65.5C 76.2113,63.552 73.878,61.552 71.5,59.5C 72.2114,55.7193 71.0447,52.7193 68,50.5C 67.7935,47.3771 67.1268,44.3771 66,41.5C 59,33.1667 52,24.8333 45,16.5C 44.501,20.8206 44.3343,25.1539 44.5,29.5C 42.2113,27.552 39.878,25.552 37.5,23.5C 38.4849,16.2396 37.1515,15.2396 33.5,20.5C 32.5849,18.2459 31.2516,16.2459 29.5,14.5C 30.657,12.8624 31.8236,11.1957 33,9.5C 33.0984,6.47759 33.9318,3.81092 35.5,1.5 Z"/></g>
<g><path style="opacity:0.84" fill="#00aadb" d="M 100.5,11.5 C 102.5,12.8333 104.167,14.5 105.5,16.5C 103.861,18.8061 101.861,20.8061 99.5,22.5C 98.1667,20.8333 96.8333,19.1667 95.5,17.5C 96.4194,14.9108 98.086,12.9108 100.5,11.5 Z"/></g>
<g><path style="opacity:0.835" fill="#00c4d3" d="M 29.5,14.5 C 31.2516,16.2459 32.5849,18.2459 33.5,20.5C 31.0584,23.729 28.3918,26.729 25.5,29.5C 24.2402,27.6329 22.5735,26.2995 20.5,25.5C 23.1518,21.5181 26.1518,17.8514 29.5,14.5 Z"/></g>
<g><path style="opacity:0.883" fill="#00aadb" d="M 105.5,16.5 C 108.194,18.5272 110.527,20.8605 112.5,23.5C 112.5,27.5 112.5,31.5 112.5,35.5C 110.122,33.448 107.789,31.448 105.5,29.5C 105.5,25.1667 105.5,20.8333 105.5,16.5 Z"/></g>
<g><path style="opacity:0.834" fill="#00adda" d="M 95.5,17.5 C 96.8333,19.1667 98.1667,20.8333 99.5,22.5C 98.9744,24.2303 97.9744,25.5637 96.5,26.5C 95.1667,24.5 93.5,22.8333 91.5,21.5C 92.5,19.8333 93.8333,18.5 95.5,17.5 Z"/></g>
<g><path style="opacity:0.844" fill="#00b2d8" d="M 91.5,21.5 C 93.5,22.8333 95.1667,24.5 96.5,26.5C 93.5136,30.817 90.1803,34.817 86.5,38.5C 84.7484,36.7541 83.4151,34.7541 82.5,32.5C 85.1518,28.5181 88.1518,24.8514 91.5,21.5 Z"/></g>
<g><path style="opacity:0.884" fill="#00c4d3" d="M 37.5,23.5 C 39.878,25.552 42.2113,27.552 44.5,29.5C 44.5,35.8333 44.5,42.1667 44.5,48.5C 41.8666,46.8679 39.5333,44.8679 37.5,42.5C 37.5,36.1667 37.5,29.8333 37.5,23.5 Z"/></g>
<g><path style="opacity:0.827" fill="#00cbd1" d="M 20.5,25.5 C 22.5735,26.2995 24.2402,27.6329 25.5,29.5C 22.5136,33.817 19.1803,37.817 15.5,41.5C 13.8333,40.1667 12.1667,38.8333 10.5,37.5C 13.3591,33.1216 16.6925,29.1216 20.5,25.5 Z"/></g>
<g><path style="opacity:0.892" fill="#00adda" d="M 105.5,29.5 C 107.789,31.448 110.122,33.448 112.5,35.5C 112.5,37.8333 112.5,40.1667 112.5,42.5C 109.833,40.5 107.5,38.1667 105.5,35.5C 105.5,33.5 105.5,31.5 105.5,29.5 Z"/></g>
<g><path style="opacity:0.881" fill="#00b2d8" d="M 105.5,35.5 C 107.5,38.1667 109.833,40.5 112.5,42.5C 112.5,50.1667 112.5,57.8333 112.5,65.5C 110.395,62.973 108.061,60.6397 105.5,58.5C 105.5,50.8333 105.5,43.1667 105.5,35.5 Z"/></g>
<g><path style="opacity:0.887" fill="#00d2cf" d="M 10.5,37.5 C 12.1667,38.8333 13.8333,40.1667 15.5,41.5C 14.7724,44.0795 14.2724,46.7462 14,49.5C 12.5787,51.4048 11.412,53.4048 10.5,55.5C 6.5,52.1667 2.83333,48.5 -0.5,44.5C -0.5,44.1667 -0.5,43.8333 -0.5,43.5C 2.64725,40.5385 6.31392,38.5385 10.5,37.5 Z"/></g>
<g><path style="opacity:0.87" fill="#00cbd1" d="M 37.5,42.5 C 39.5333,44.8679 41.8666,46.8679 44.5,48.5C 44.3339,54.1764 44.5006,59.8431 45,65.5C 48.0341,68.5142 49.2008,72.1809 48.5,76.5C 44.4729,73.1396 40.8062,69.4729 37.5,65.5C 37.5,57.8333 37.5,50.1667 37.5,42.5 Z"/></g>
<g><path style="opacity:0.863" fill="#00d5cf" d="M -0.5,44.5 C 2.83333,48.5 6.5,52.1667 10.5,55.5C 10.5,57.1667 10.5,58.8333 10.5,60.5C 8.16667,58.5 5.83333,56.5 3.5,54.5C 2.5,52.8333 1.16667,51.5 -0.5,50.5C -0.5,48.5 -0.5,46.5 -0.5,44.5 Z"/></g>
<g><path style="opacity:0.866" fill="#00aadb" d="M 136.5,49.5 C 140.194,52.5271 143.527,55.8604 146.5,59.5C 146.5,63.5 146.5,67.5 146.5,71.5C 144.167,69.5 141.833,67.5 139.5,65.5C 139.666,61.4862 139.499,57.4862 139,53.5C 137.519,52.5291 136.685,51.1958 136.5,49.5 Z"/></g>
<g><path style="opacity:0.883" fill="#00d8ce" d="M 3.5,54.5 C 5.83333,56.5 8.16667,58.5 10.5,60.5C 10.5,64.5 10.5,68.5 10.5,72.5C 8.21132,70.552 5.87798,68.552 3.5,66.5C 3.5,62.5 3.5,58.5 3.5,54.5 Z"/></g>
<g><path style="opacity:0.883" fill="#00b8d6" d="M 105.5,58.5 C 108.061,60.6397 110.395,62.973 112.5,65.5C 114.173,66.343 115.34,67.6763 116,69.5C 116.241,72.2889 116.908,74.9556 118,77.5C 125,85.8333 132,94.1667 139,102.5C 139.497,99.854 139.664,97.1873 139.5,94.5C 142.061,96.6397 144.395,98.973 146.5,101.5C 147.587,105.089 148.92,108.589 150.5,112C 150.57,115.366 149.237,117.866 146.5,119.5C 146.167,119.5 145.833,119.5 145.5,119.5C 142.905,114.569 139.238,110.569 134.5,107.5C 133.581,104.911 131.914,102.911 129.5,101.5C 123.492,95.6549 117.992,89.3216 113,82.5C 111.871,80.8588 110.371,79.8588 108.5,79.5C 106.5,76.8333 104.167,74.5 101.5,72.5C 101.595,69.6424 102.762,67.3091 105,65.5C 105.497,63.1902 105.663,60.8568 105.5,58.5 Z"/></g>
<g><path style="opacity:0.885" fill="#00c4d3" d="M 71.5,59.5 C 73.878,61.552 76.2113,63.552 78.5,65.5C 78.5,72.1667 78.5,78.8333 78.5,85.5C 75.9387,83.3603 73.6054,81.027 71.5,78.5C 71.5,72.1667 71.5,65.8333 71.5,59.5 Z"/></g>
<g><path style="opacity:0.876" fill="#00d0d0" d="M 37.5,65.5 C 40.8062,69.4729 44.4729,73.1396 48.5,76.5C 56.135,84.9742 63.635,93.6409 71,102.5C 71.3988,102.272 71.5654,101.938 71.5,101.5C 74.8333,105.5 78.5,109.167 82.5,112.5C 82.0023,115.326 80.6689,117.66 78.5,119.5C 76.1667,119.5 73.8333,119.5 71.5,119.5C 70.1986,118.36 69.0319,117.027 68,115.5C 67.9464,112.139 66.9464,109.139 65,106.5C 57.3007,97.1398 49.3007,88.1398 41,79.5C 39.3566,80.3146 37.8566,81.3146 36.5,82.5C 34.8333,81.1667 33.1667,79.8333 31.5,78.5C 32.9676,75.7223 33.801,72.7223 34,69.5C 34.66,67.6763 35.8267,66.343 37.5,65.5 Z"/></g>
<g><path style="opacity:0.875" fill="#00adda" d="M 139.5,65.5 C 141.833,67.5 144.167,69.5 146.5,71.5C 146.5,73.8333 146.5,76.1667 146.5,78.5C 144.467,76.1321 142.133,74.1321 139.5,72.5C 139.5,70.1667 139.5,67.8333 139.5,65.5 Z"/></g>
<g><path style="opacity:0.882" fill="#00ddcc" d="M 3.5,66.5 C 5.87798,68.552 8.21132,70.552 10.5,72.5C 10.5,78.8333 10.5,85.1667 10.5,91.5C 8.18482,89.8583 5.85149,88.1916 3.5,86.5C 3.5,79.8333 3.5,73.1667 3.5,66.5 Z"/></g>
<g><path style="opacity:0.849" fill="#00bed5" d="M 101.5,72.5 C 104.167,74.5 106.5,76.8333 108.5,79.5C 105.728,82.6937 102.728,85.6937 99.5,88.5C 97.457,87.4206 96.1237,85.754 95.5,83.5C 96.7372,80.7554 98.5705,78.4221 101,76.5C 101.49,75.2068 101.657,73.8734 101.5,72.5 Z"/></g>
<g><path style="opacity:0.885" fill="#00b2d8" d="M 139.5,72.5 C 142.133,74.1321 144.467,76.1321 146.5,78.5C 146.5,86.1667 146.5,93.8333 146.5,101.5C 144.395,98.973 142.061,96.6397 139.5,94.5C 139.5,87.1667 139.5,79.8333 139.5,72.5 Z"/></g>
<g><path style="opacity:0.85" fill="#00d5cf" d="M 31.5,78.5 C 33.1667,79.8333 34.8333,81.1667 36.5,82.5C 35.9744,84.2303 34.9744,85.5637 33.5,86.5C 31.7484,84.7541 30.4151,82.7541 29.5,80.5C 29.8333,79.5 30.5,78.8333 31.5,78.5 Z"/></g>
<g><path style="opacity:0.874" fill="#00cad1" d="M 71.5,78.5 C 73.6054,81.027 75.9387,83.3603 78.5,85.5C 78.3339,91.1764 78.5006,96.8431 79,102.5C 81.0001,99.3343 83.5001,96.6676 86.5,94.5C 88.1793,95.9163 89.8459,97.2497 91.5,98.5C 88.8819,102.291 86.0486,105.957 83,109.5C 82.5172,110.448 82.3505,111.448 82.5,112.5C 78.5,109.167 74.8333,105.5 71.5,101.5C 71.5,93.8333 71.5,86.1667 71.5,78.5 Z"/></g>
<g><path style="opacity:0.813" fill="#00d8ce" d="M 29.5,80.5 C 30.4151,82.7541 31.7484,84.7541 33.5,86.5C 32.2993,88.9095 30.6326,90.9095 28.5,92.5C 27.194,90.5273 25.5273,88.8606 23.5,87.5C 25.5293,85.1415 27.5293,82.8082 29.5,80.5 Z"/></g>
<g><path style="opacity:0.826" fill="#00c4d3" d="M 95.5,83.5 C 96.1237,85.754 97.457,87.4206 99.5,88.5C 97.2065,92.1274 94.5398,95.4607 91.5,98.5C 89.8459,97.2497 88.1793,95.9163 86.5,94.5C 89.1285,90.5373 92.1285,86.8706 95.5,83.5 Z"/></g>
<g><path style="opacity:0.89" fill="#00e3ca" d="M 3.5,86.5 C 5.85149,88.1916 8.18482,89.8583 10.5,91.5C 10.3347,95.1817 10.5014,98.8484 11,102.5C 12.0491,100.382 13.5491,98.7158 15.5,97.5C 16.8333,99.5 18.1667,101.5 19.5,103.5C 16.0864,106.327 14.2531,109.994 14,114.5C 13.6232,115.942 12.7899,116.942 11.5,117.5C 8.8782,113.543 5.8782,109.876 2.5,106.5C 3.4601,99.9221 3.79344,93.2554 3.5,86.5 Z"/></g>
<g><path style="opacity:0.845" fill="#00ddcc" d="M 23.5,87.5 C 25.5273,88.8606 27.194,90.5273 28.5,92.5C 25.8482,96.4819 22.8482,100.149 19.5,103.5C 18.1667,101.5 16.8333,99.5 15.5,97.5C 17.8171,93.8536 20.4838,90.5203 23.5,87.5 Z"/></g>
<g><path style="opacity:0.51" fill="#00bcd6" d="M 129.5,101.5 C 131.914,102.911 133.581,104.911 134.5,107.5C 132.086,106.089 130.419,104.089 129.5,101.5 Z"/></g>
<g><path style="opacity:0.858" fill="#00e8c9" d="M 2.5,106.5 C 5.8782,109.876 8.8782,113.543 11.5,117.5C 11.1667,118.167 10.8333,118.833 10.5,119.5C 8.16667,119.5 5.83333,119.5 3.5,119.5C 1.83333,118.5 0.5,117.167 -0.5,115.5C -0.5,113.167 -0.5,110.833 -0.5,108.5C 0.5,107.833 1.5,107.167 2.5,106.5 Z"/></g>
<g><path style="opacity:0.805" fill="#00bcd6" d="M 134.5,107.5 C 139.238,110.569 142.905,114.569 145.5,119.5C 143.5,119.5 141.5,119.5 139.5,119.5C 136.358,116.171 134.691,112.171 134.5,107.5 Z"/></g>
</svg>
